<?xml version="1.0" encoding="UTF-8"?>
<svg xmlns="http://www.w3.org/2000/svg" xmlns:xlink="http://www.w3.org/1999/xlink" width="16px" height="16px" viewBox="0 0 16 16" version="1.1">
<g id="surface1">
<path style=" stroke:none;fill-rule:nonzero;fill:rgb(1.568628%,59.215689%,53.725493%);fill-opacity:1;" d="M 3.75 0 L 12.25 0 C 14.320312 0 16 1.679688 16 3.75 L 16 12.25 C 16 14.320312 14.320312 16 12.25 16 L 3.75 16 C 1.679688 16 0 14.320312 0 12.25 L 0 3.75 C 0 1.679688 1.679688 0 3.75 0 Z M 3.75 0 "/>
<path style=" stroke:none;fill-rule:nonzero;fill:rgb(100%,100%,100%);fill-opacity:1;" d="M 7.96875 2.5625 C 4.984375 2.5625 2.5625 4.984375 2.5625 7.96875 C 2.5625 10.953125 4.984375 13.375 7.96875 13.375 C 10.953125 13.375 13.375 10.953125 13.375 7.96875 C 13.375 4.984375 10.953125 2.5625 7.96875 2.5625 Z M 7.6875 12.300781 L 7.6875 8.910156 L 5.800781 8.910156 L 8.511719 3.636719 L 8.511719 7.027344 L 10.324219 7.027344 Z M 7.6875 12.300781 "/>
</g>
</svg>
