<?xml version="1.0" encoding="UTF-8"?>
<svg xmlns="http://www.w3.org/2000/svg" xmlns:xlink="http://www.w3.org/1999/xlink" width="16px" height="16px" viewBox="0 0 16 16" version="1.1">
<g id="surface1">
<path style=" stroke:none;fill-rule:nonzero;fill:rgb(100%,80.784315%,74.901962%);fill-opacity:1;" d="M 9.023438 14.800781 C 9.046875 14.753906 9.097656 14.71875 9.136719 14.679688 C 9.726562 14.0625 10.316406 13.453125 10.898438 12.828125 C 11.265625 12.488281 11.453125 12 11.402344 11.5 C 11.386719 11.394531 11.363281 11.289062 11.332031 11.1875 C 11.175781 11.339844 11.027344 11.472656 10.878906 11.613281 C 10.648438 11.824219 10.421875 12.039062 10.1875 12.253906 C 9.910156 12.539062 9.480469 12.621094 9.113281 12.460938 C 8.742188 12.324219 8.488281 11.980469 8.46875 11.585938 C 8.464844 11.5625 8.457031 11.539062 8.449219 11.515625 C 8.273438 11.664062 8.101562 11.800781 7.933594 11.945312 L 4.453125 14.894531 C 4.429688 14.914062 4.402344 14.941406 4.382812 14.960938 L 9.023438 14.960938 L 9.015625 14.957031 C 8.992188 14.9375 9.003906 14.847656 9.023438 14.800781 Z M 4.167969 14.800781 C 4.210938 14.746094 4.257812 14.699219 4.316406 14.660156 L 9.132812 10.574219 C 9.460938 10.296875 9.789062 10.015625 10.117188 9.734375 C 10.15625 9.703125 10.1875 9.667969 10.207031 9.621094 C 10.285156 9.28125 10.296875 8.929688 10.238281 8.585938 C 10.1875 8.621094 10.160156 8.636719 10.140625 8.660156 C 9.746094 9.015625 9.351562 9.371094 8.957031 9.722656 C 8.6875 9.992188 8.273438 10.058594 7.929688 9.886719 C 7.585938 9.722656 7.371094 9.363281 7.390625 8.980469 L 7.390625 8.820312 C 7.320312 8.871094 7.265625 8.910156 7.214844 8.949219 C 5.289062 10.492188 3.359375 12.035156 1.433594 13.578125 C 1.34375 13.648438 1.242188 13.800781 1.128906 13.652344 C 1.011719 13.5 1.1875 13.4375 1.273438 13.367188 C 3.328125 11.71875 5.386719 10.070312 7.441406 8.425781 C 7.777344 8.15625 7.800781 8.046875 7.582031 7.617188 L 7.453125 7.742188 C 7.09375 8.070312 6.734375 8.398438 6.382812 8.734375 C 6.089844 9.019531 5.660156 9.109375 5.277344 8.964844 C 4.894531 8.824219 4.628906 8.472656 4.589844 8.066406 C 4.523438 8.117188 4.46875 8.152344 4.414062 8.195312 L 1.363281 10.558594 C 1.308594 10.613281 1.25 10.65625 1.183594 10.691406 C 1.136719 10.703125 1.082031 10.703125 1.035156 10.683594 L 1.035156 14.960938 L 4.164062 14.960938 Z M 4.167969 14.800781 "/>
<path style=" stroke:none;fill-rule:nonzero;fill:rgb(100%,38.039216%,58.823532%);fill-opacity:1;" d="M 12.617188 1.210938 C 12.535156 1.488281 12.449219 1.769531 12.375 2.050781 C 12.234375 2.460938 12.429688 2.914062 12.828125 3.09375 C 13.414062 3.402344 14.074219 3.542969 14.734375 3.496094 L 14.734375 1.257812 C 14.726562 1.210938 14.730469 1.160156 14.742188 1.113281 L 12.617188 1.039062 C 12.648438 1.078125 12.636719 1.144531 12.617188 1.210938 Z M 12.617188 1.210938 "/>
<path style=" stroke:none;fill-rule:nonzero;fill:rgb(100%,52.941179%,68.627453%);fill-opacity:1;" d="M 8.242188 6.015625 C 8.230469 6.265625 8.144531 6.507812 7.992188 6.703125 C 7.445312 7.40625 6.820312 8.042969 6.128906 8.601562 C 5.898438 8.8125 5.558594 8.851562 5.285156 8.699219 C 5.015625 8.585938 4.847656 8.308594 4.863281 8.015625 C 4.878906 7.839844 4.953125 7.671875 5.074219 7.542969 C 5.847656 6.804688 6.6875 6.136719 7.582031 5.546875 C 7.703125 5.453125 7.871094 5.445312 7.996094 5.527344 C 8.164062 5.632812 8.257812 5.820312 8.242188 6.015625 Z M 7.640625 9.046875 C 7.617188 8.824219 7.703125 8.601562 7.867188 8.445312 C 8.625 7.746094 9.4375 7.109375 10.300781 6.539062 C 10.328125 6.523438 10.351562 6.507812 10.378906 6.488281 C 10.535156 6.378906 10.746094 6.386719 10.890625 6.507812 C 11.035156 6.628906 11.082031 6.824219 11.011719 6.996094 C 10.902344 7.359375 10.703125 7.6875 10.429688 7.949219 C 9.871094 8.5 9.304688 9.035156 8.730469 9.5625 C 8.550781 9.746094 8.269531 9.785156 8.046875 9.65625 C 7.816406 9.535156 7.664062 9.304688 7.640625 9.046875 Z M 11.25 9.378906 C 11.109375 9.527344 10.964844 9.671875 10.832031 9.824219 C 10.792969 9.882812 10.757812 9.945312 10.730469 10.011719 C 10.804688 10.035156 10.890625 10.09375 10.953125 10.074219 C 11.257812 9.96875 11.554688 9.847656 11.890625 9.71875 C 11.816406 9.886719 11.761719 10.039062 11.683594 10.183594 C 11.367188 10.71875 10.964844 11.203125 10.5 11.617188 C 10.324219 11.789062 10.136719 11.953125 9.949219 12.109375 C 9.742188 12.28125 9.460938 12.328125 9.210938 12.230469 C 8.960938 12.136719 8.78125 11.914062 8.738281 11.648438 C 8.722656 11.503906 8.765625 11.355469 8.859375 11.242188 C 9.539062 10.503906 10.316406 9.859375 11.171875 9.332031 Z M 11.25 9.378906 "/>
<path style=" stroke:none;fill-rule:nonzero;fill:rgb(100%,38.039216%,58.823532%);fill-opacity:1;" d="M 12.398438 7.386719 L 13.253906 3.585938 L 13.851562 3.726562 L 13.542969 4.667969 C 13.253906 5.542969 12.960938 6.417969 12.679688 7.292969 C 12.625 7.453125 12.550781 7.484375 12.398438 7.386719 Z M 11.429688 9.621094 C 11.523438 9.273438 11.613281 8.957031 11.6875 8.632812 C 11.761719 8.320312 11.902344 8.027344 12.101562 7.773438 C 12.222656 7.613281 12.359375 7.675781 12.496094 7.710938 C 12.628906 7.742188 12.660156 7.835938 12.664062 7.960938 C 12.683594 8.304688 12.582031 8.640625 12.371094 8.914062 C 12.121094 9.222656 11.796875 9.464844 11.429688 9.621094 Z M 11.429688 9.621094 "/>
<path style=" stroke:none;fill-rule:nonzero;fill:rgb(0%,0%,0%);fill-opacity:1;" d="M 14.996094 1.445312 C 15.003906 1.335938 15 1.222656 14.988281 1.113281 C 14.839844 0.996094 14.816406 1.011719 14.792969 1.035156 C 14.730469 1.160156 14.726562 1.210938 14.734375 1.257812 L 14.734375 3.496094 C 14.074219 3.542969 13.410156 3.402344 12.824219 3.09375 C 12.425781 2.914062 12.230469 2.460938 12.375 2.050781 C 12.449219 1.769531 12.53125 1.488281 12.617188 1.210938 C 12.636719 1.144531 12.648438 1.074219 12.617188 1.035156 C 12.273438 1.429688 12.183594 1.734375 12.109375 2.039062 C 12.078125 2.160156 12.070312 2.285156 12.085938 2.410156 C 12.125 2.863281 12.425781 3.253906 12.855469 3.410156 C 12.949219 3.449219 13.007812 3.488281 12.980469 3.613281 C 12.941406 3.769531 12.90625 3.929688 12.871094 4.085938 C 12.625 5.160156 12.382812 6.234375 12.140625 7.308594 C 12.132812 7.359375 12.113281 7.402344 12.078125 7.4375 C 11.921875 7.566406 11.785156 7.722656 11.683594 7.898438 C 11.554688 8.132812 11.464844 8.386719 11.417969 8.648438 C 11.402344 8.820312 11.296875 8.96875 11.140625 9.039062 C 10.933594 9.148438 10.742188 9.28125 10.507812 9.425781 C 10.523438 9.148438 10.519531 8.867188 10.5 8.589844 C 10.464844 8.414062 10.515625 8.234375 10.640625 8.109375 C 10.945312 7.808594 11.164062 7.429688 11.269531 7.011719 C 11.335938 6.816406 11.304688 6.601562 11.183594 6.433594 C 11.066406 6.265625 10.871094 6.164062 10.667969 6.164062 C 10.503906 6.160156 10.339844 6.207031 10.203125 6.292969 C 9.726562 6.621094 9.257812 6.957031 8.796875 7.308594 C 8.523438 7.511719 8.265625 7.742188 8 7.957031 C 7.964844 7.878906 7.957031 7.84375 7.941406 7.808594 C 7.71875 7.46875 7.875 7.21875 8.113281 6.964844 C 8.363281 6.703125 8.503906 6.351562 8.5 5.988281 C 8.507812 5.804688 8.449219 5.621094 8.335938 5.476562 C 8.277344 5.402344 8.203125 5.339844 8.117188 5.292969 C 7.871094 5.160156 7.570312 5.191406 7.359375 5.375 L 7.21875 5.476562 C 6.902344 5.703125 6.578125 5.925781 6.273438 6.167969 C 5.824219 6.527344 5.386719 6.894531 4.960938 7.277344 C 4.757812 7.453125 4.613281 7.695312 4.40625 7.859375 C 3.324219 8.710938 2.230469 9.550781 1.140625 10.394531 C 1.101562 10.417969 1.070312 10.445312 1.039062 10.476562 C 1.007812 10.542969 0.988281 10.632812 1.015625 10.664062 C 1.085938 10.703125 1.136719 10.703125 1.1875 10.6875 C 1.253906 10.65625 1.3125 10.613281 1.367188 10.558594 L 4.414062 8.195312 C 4.46875 8.152344 4.527344 8.113281 4.59375 8.066406 C 4.632812 8.472656 4.898438 8.824219 5.28125 8.964844 C 5.664062 9.109375 6.09375 9.019531 6.386719 8.734375 C 6.738281 8.398438 7.097656 8.070312 7.453125 7.738281 L 7.585938 7.617188 C 7.804688 8.042969 7.78125 8.15625 7.445312 8.425781 C 5.386719 10.074219 3.332031 11.71875 1.273438 13.367188 C 1.1875 13.4375 1.015625 13.503906 1.128906 13.652344 C 1.242188 13.800781 1.34375 13.648438 1.433594 13.578125 C 3.359375 12.035156 5.289062 10.496094 7.214844 8.949219 C 7.265625 8.910156 7.316406 8.875 7.390625 8.820312 L 7.390625 8.984375 C 7.371094 9.367188 7.582031 9.722656 7.929688 9.886719 C 8.269531 10.058594 8.683594 9.992188 8.953125 9.722656 C 9.351562 9.371094 9.742188 9.015625 10.136719 8.664062 C 10.160156 8.640625 10.191406 8.621094 10.238281 8.589844 C 10.292969 8.933594 10.28125 9.28125 10.203125 9.621094 C 10.183594 9.667969 10.152344 9.707031 10.113281 9.734375 C 9.789062 10.015625 9.460938 10.296875 9.132812 10.574219 L 4.316406 14.664062 C 4.257812 14.703125 4.210938 14.75 4.167969 14.800781 C 4.40625 14.941406 4.429688 14.914062 4.453125 14.894531 L 7.933594 11.945312 C 8.101562 11.804688 8.269531 11.664062 8.449219 11.515625 C 8.457031 11.539062 8.464844 11.5625 8.46875 11.589844 C 8.488281 11.984375 8.742188 12.328125 9.113281 12.464844 C 9.480469 12.621094 9.90625 12.539062 10.1875 12.253906 C 10.421875 12.042969 10.648438 11.828125 10.878906 11.613281 C 11.027344 11.476562 11.175781 11.339844 11.332031 11.191406 C 11.363281 11.292969 11.386719 11.394531 11.402344 11.5 C 11.449219 11.996094 11.261719 12.488281 10.898438 12.824219 C 10.316406 13.449219 9.722656 14.058594 9.136719 14.675781 C 9.097656 14.714844 9.046875 14.75 9.023438 14.796875 C 9.003906 14.84375 8.988281 14.9375 9.015625 14.957031 L 9.023438 14.960938 C 9.074219 14.988281 9.132812 14.996094 9.191406 14.988281 C 9.246094 14.945312 9.257812 14.929688 9.273438 14.914062 C 9.75 14.421875 10.226562 13.933594 10.699219 13.4375 C 10.890625 13.246094 11.070312 13.042969 11.238281 12.828125 C 11.679688 12.335938 11.800781 11.628906 11.542969 11.019531 C 11.527344 10.953125 11.542969 10.882812 11.578125 10.824219 C 11.609375 10.769531 11.648438 10.714844 11.683594 10.660156 C 11.800781 10.507812 11.902344 10.339844 11.976562 10.160156 C 12.125 9.722656 12.351562 9.316406 12.648438 8.960938 C 12.921875 8.613281 13.015625 8.15625 12.898438 7.726562 C 12.875 7.648438 12.875 7.5625 12.898438 7.484375 C 13.148438 6.699219 13.410156 5.917969 13.667969 5.136719 L 14.011719 4.089844 L 14.121094 3.765625 C 14.347656 3.765625 14.5625 3.761719 14.773438 3.765625 C 14.949219 3.769531 15.003906 3.6875 15.003906 3.515625 C 14.992188 2.824219 14.996094 2.136719 14.996094 1.445312 Z M 6.128906 8.601562 C 5.898438 8.8125 5.558594 8.851562 5.285156 8.699219 C 5.015625 8.585938 4.847656 8.308594 4.863281 8.015625 C 4.878906 7.839844 4.953125 7.671875 5.074219 7.542969 C 5.847656 6.804688 6.6875 6.136719 7.582031 5.546875 C 7.632812 5.511719 7.6875 5.488281 7.746094 5.476562 C 7.785156 5.46875 7.824219 5.46875 7.863281 5.476562 C 7.910156 5.484375 7.957031 5.503906 7.996094 5.527344 C 8.164062 5.632812 8.257812 5.820312 8.242188 6.015625 C 8.230469 6.265625 8.144531 6.507812 7.992188 6.703125 C 7.445312 7.40625 6.820312 8.042969 6.128906 8.601562 Z M 8.726562 9.566406 C 8.550781 9.75 8.269531 9.789062 8.046875 9.660156 C 7.8125 9.539062 7.660156 9.308594 7.640625 9.046875 C 7.617188 8.824219 7.699219 8.601562 7.863281 8.449219 C 8.625 7.75 9.4375 7.109375 10.300781 6.542969 C 10.324219 6.527344 10.351562 6.507812 10.378906 6.492188 C 10.535156 6.378906 10.746094 6.386719 10.890625 6.507812 C 11.03125 6.628906 11.082031 6.828125 11.011719 7 C 10.902344 7.363281 10.703125 7.691406 10.429688 7.953125 C 9.875 8.503906 9.304688 9.035156 8.730469 9.5625 Z M 11.683594 10.183594 C 11.363281 10.722656 10.964844 11.203125 10.5 11.617188 C 10.324219 11.789062 10.136719 11.953125 9.949219 12.109375 C 9.742188 12.28125 9.460938 12.328125 9.210938 12.230469 C 8.960938 12.136719 8.78125 11.914062 8.738281 11.648438 C 8.722656 11.503906 8.765625 11.355469 8.859375 11.242188 C 9.539062 10.503906 10.316406 9.859375 11.171875 9.332031 L 11.253906 9.375 C 11.113281 9.523438 10.96875 9.667969 10.835938 9.820312 C 10.792969 9.878906 10.761719 9.945312 10.734375 10.011719 C 10.808594 10.035156 10.894531 10.089844 10.953125 10.070312 C 11.195312 9.988281 11.433594 9.894531 11.6875 9.796875 L 11.894531 9.714844 C 11.816406 9.886719 11.761719 10.039062 11.683594 10.183594 Z M 12.371094 8.917969 C 12.183594 9.15625 11.949219 9.351562 11.683594 9.492188 C 11.601562 9.539062 11.515625 9.582031 11.429688 9.621094 C 11.519531 9.28125 11.609375 8.964844 11.683594 8.648438 L 11.6875 8.632812 C 11.761719 8.320312 11.902344 8.027344 12.097656 7.773438 C 12.222656 7.613281 12.359375 7.679688 12.496094 7.710938 C 12.625 7.742188 12.660156 7.839844 12.664062 7.960938 C 12.683594 8.304688 12.582031 8.644531 12.371094 8.914062 Z M 13.539062 4.667969 C 13.25 5.542969 12.957031 6.417969 12.675781 7.292969 C 12.625 7.457031 12.550781 7.488281 12.394531 7.390625 L 13.136719 4.09375 L 13.25 3.585938 L 13.851562 3.726562 L 13.730469 4.09375 Z M 13.539062 4.667969 "/>
</g>
</svg>
