<?xml version="1.0" encoding="UTF-8"?>
<svg xmlns="http://www.w3.org/2000/svg" xmlns:xlink="http://www.w3.org/1999/xlink" width="16px" height="16px" viewBox="0 0 16 16" version="1.1">
<g id="surface1">
<path style=" stroke:none;fill-rule:nonzero;fill:rgb(88.235295%,30.588236%,11.372549%);fill-opacity:1;" d="M 3.75 0 L 12.25 0 C 14.320312 0 16 1.679688 16 3.75 L 16 12.25 C 16 14.320312 14.320312 16 12.25 16 L 3.75 16 C 1.679688 16 0 14.320312 0 12.25 L 0 3.75 C 0 1.679688 1.679688 0 3.75 0 Z M 3.75 0 "/>
<path style=" stroke:none;fill-rule:nonzero;fill:rgb(100%,100%,100%);fill-opacity:1;" d="M 3 2.375 L 3.539062 8.410156 L 10.457031 8.410156 L 10.226562 11 L 7.996094 11.605469 L 5.773438 11.003906 L 5.625 9.339844 L 3.621094 9.339844 L 3.90625 12.542969 L 7.996094 13.679688 L 12.089844 12.542969 L 12.640625 6.414062 L 5.363281 6.414062 L 5.179688 4.371094 L 12.820312 4.371094 L 13 2.375 Z M 3 2.375 "/>
<path style=" stroke:none;fill-rule:nonzero;fill:rgb(92.156863%,92.156863%,92.156863%);fill-opacity:1;" d="M 8 2.375 L 3 2.375 L 3.539062 8.410156 L 8 8.410156 L 8 6.414062 L 5.363281 6.414062 L 5.179688 4.371094 L 8 4.371094 Z M 8 11.601562 L 7.996094 11.605469 L 5.773438 11.003906 L 5.625 9.339844 L 3.621094 9.339844 L 3.90625 12.542969 L 7.996094 13.679688 L 8 13.679688 Z M 8 11.601562 "/>
</g>
</svg>
