<?xml version="1.0" encoding="UTF-8"?>
<svg xmlns="http://www.w3.org/2000/svg" xmlns:xlink="http://www.w3.org/1999/xlink" width="16px" height="16px" viewBox="0 0 16 16" version="1.1">
<g id="surface1">
<path style=" stroke:none;fill-rule:nonzero;fill:rgb(94.117647%,85.882354%,30.980393%);fill-opacity:1;" d="M 3.75 0 L 12.25 0 C 14.320312 0 16 1.679688 16 3.75 L 16 12.25 C 16 14.320312 14.320312 16 12.25 16 L 3.75 16 C 1.679688 16 0 14.320312 0 12.25 L 0 3.75 C 0 1.679688 1.679688 0 3.75 0 Z M 3.75 0 "/>
<path style=" stroke:none;fill-rule:nonzero;fill:rgb(19.607843%,20%,18.82353%);fill-opacity:1;" d="M 4.207031 13.371094 L 5.429688 12.628906 C 5.667969 13.046875 5.882812 13.402344 6.398438 13.402344 C 6.890625 13.402344 7.203125 13.210938 7.203125 12.457031 L 7.203125 7.34375 L 8.707031 7.34375 L 8.707031 12.480469 C 8.707031 14.035156 7.792969 14.746094 6.460938 14.746094 C 5.257812 14.746094 4.5625 14.121094 4.207031 13.371094 M 9.523438 13.210938 L 10.75 12.5 C 11.070312 13.027344 11.488281 13.414062 12.230469 13.414062 C 12.851562 13.414062 13.25 13.101562 13.25 12.671875 C 13.25 12.15625 12.84375 11.972656 12.15625 11.675781 L 11.777344 11.511719 C 10.695312 11.050781 9.976562 10.472656 9.976562 9.246094 C 9.976562 8.117188 10.835938 7.257812 12.175781 7.257812 C 13.132812 7.257812 13.820312 7.59375 14.3125 8.460938 L 13.144531 9.214844 C 12.886719 8.753906 12.605469 8.570312 12.175781 8.570312 C 11.734375 8.570312 11.457031 8.847656 11.457031 9.214844 C 11.457031 9.664062 11.734375 9.847656 12.378906 10.128906 L 12.757812 10.289062 C 14.035156 10.835938 14.753906 11.394531 14.753906 12.652344 C 14.753906 14.003906 13.691406 14.746094 12.261719 14.746094 C 10.867188 14.746094 9.964844 14.078125 9.523438 13.210938 "/>
</g>
</svg>
