<?xml version="1.0" encoding="UTF-8"?>
<svg xmlns="http://www.w3.org/2000/svg" xmlns:xlink="http://www.w3.org/1999/xlink" width="16px" height="16px" viewBox="0 0 16 16" version="1.1">
<g id="surface1">
<path style=" stroke:none;fill-rule:nonzero;fill:rgb(0%,0%,0%);fill-opacity:1;" d="M 15.882812 11.542969 L 13.0625 7.632812 L 8.5 1.300781 C 8.265625 0.984375 7.730469 0.984375 7.5 1.300781 L 2.9375 7.632812 L 0.117188 11.542969 C 0 11.703125 -0.03125 11.90625 0.03125 12.09375 C 0.0898438 12.28125 0.238281 12.425781 0.421875 12.488281 L 7.808594 14.90625 C 7.933594 14.945312 8.066406 14.945312 8.191406 14.90625 L 15.578125 12.488281 C 15.761719 12.425781 15.910156 12.28125 15.96875 12.09375 C 16.03125 11.90625 16 11.703125 15.882812 11.542969 Z M 8 2.714844 L 10.960938 6.820312 L 8.191406 5.910156 C 8.171875 5.90625 8.148438 5.90625 8.128906 5.902344 C 8.042969 5.886719 8.023438 5.878906 8 5.878906 C 7.980469 5.878906 7.960938 5.886719 7.9375 5.890625 C 7.851562 5.90625 7.828125 5.90625 7.808594 5.910156 L 5.058594 6.8125 L 5.042969 6.820312 L 8.003906 2.714844 Z M 3.820312 8.511719 L 7.042969 7.457031 L 7.386719 7.347656 L 7.386719 13.472656 L 1.605469 11.582031 L 3.816406 8.515625 Z M 8.617188 13.472656 L 8.617188 7.347656 L 12.183594 8.515625 L 14.394531 11.578125 Z M 8.617188 13.472656 "/>
</g>
</svg>
