<?xml version="1.0" encoding="UTF-8"?>
<svg xmlns="http://www.w3.org/2000/svg" xmlns:xlink="http://www.w3.org/1999/xlink" width="16px" height="16px" viewBox="0 0 16 16" version="1.1">
<defs>
<linearGradient id="linear0" gradientUnits="userSpaceOnUse" x1="0.12959" y1="0.12039" x2="0.79639" y2="0.78201" gradientTransform="matrix(11.832031,0,0,11.863281,0.0078125,0.0351562)">
<stop offset="0" style="stop-color:rgb(21.960784%,49.411765%,72.156863%);stop-opacity:1;"/>
<stop offset="1" style="stop-color:rgb(21.176471%,41.176471%,58.039216%);stop-opacity:1;"/>
</linearGradient>
<linearGradient id="linear1" gradientUnits="userSpaceOnUse" x1="0.19128" y1="0.20579" x2="0.90742" y2="0.88429" gradientTransform="matrix(11.828125,0,0,11.863281,4.140625,4.050781)">
<stop offset="0" style="stop-color:rgb(100%,87.843137%,32.156863%);stop-opacity:1;"/>
<stop offset="1" style="stop-color:rgb(100%,76.470588%,19.215686%);stop-opacity:1;"/>
</linearGradient>
</defs>
<g id="surface1">
<path style=" stroke:none;fill-rule:nonzero;fill:url(#linear0);" d="M 7.933594 0.0351562 C 3.878906 0.0351562 4.132812 1.792969 4.132812 1.792969 L 4.136719 3.613281 L 8.003906 3.613281 L 8.003906 4.160156 L 2.601562 4.160156 C 2.601562 4.160156 0.0078125 3.867188 0.0078125 7.953125 C 0.0078125 12.042969 2.273438 11.898438 2.273438 11.898438 L 3.621094 11.898438 L 3.621094 10 C 3.621094 10 3.550781 7.738281 5.851562 7.738281 L 9.683594 7.738281 C 9.683594 7.738281 11.839844 7.773438 11.839844 5.65625 L 11.839844 2.15625 C 11.839844 2.15625 12.167969 0.0351562 7.933594 0.0351562 Z M 5.800781 1.261719 C 5.984375 1.261719 6.160156 1.332031 6.292969 1.464844 C 6.421875 1.59375 6.496094 1.769531 6.496094 1.957031 C 6.496094 2.140625 6.421875 2.316406 6.292969 2.449219 C 6.160156 2.578125 5.984375 2.652344 5.800781 2.652344 C 5.617188 2.652344 5.4375 2.578125 5.308594 2.449219 C 5.175781 2.316406 5.105469 2.140625 5.105469 1.957031 C 5.105469 1.769531 5.175781 1.59375 5.308594 1.464844 C 5.4375 1.332031 5.617188 1.261719 5.800781 1.261719 Z M 5.800781 1.261719 "/>
<path style=" stroke:none;fill-rule:nonzero;fill:url(#linear1);" d="M 8.046875 15.914062 C 12.097656 15.914062 11.847656 14.15625 11.847656 14.15625 L 11.84375 12.335938 L 7.976562 12.335938 L 7.976562 11.789062 L 13.378906 11.789062 C 13.378906 11.789062 15.96875 12.085938 15.96875 7.996094 C 15.96875 3.90625 13.707031 4.050781 13.707031 4.050781 L 12.355469 4.050781 L 12.355469 5.949219 C 12.355469 5.949219 12.429688 8.210938 10.128906 8.210938 L 6.292969 8.210938 C 6.292969 8.210938 4.140625 8.175781 4.140625 10.292969 L 4.140625 13.796875 C 4.140625 13.796875 3.8125 15.914062 8.046875 15.914062 Z M 10.179688 14.691406 C 9.996094 14.691406 9.816406 14.617188 9.6875 14.488281 C 9.558594 14.355469 9.484375 14.179688 9.484375 13.996094 C 9.484375 13.808594 9.558594 13.632812 9.6875 13.503906 C 9.816406 13.371094 9.996094 13.296875 10.179688 13.296875 C 10.363281 13.296875 10.539062 13.371094 10.671875 13.503906 C 10.800781 13.632812 10.875 13.808594 10.875 13.996094 C 10.875 14.179688 10.800781 14.355469 10.671875 14.488281 C 10.539062 14.617188 10.363281 14.691406 10.179688 14.691406 Z M 10.179688 14.691406 "/>
</g>
</svg>
