<?xml version="1.0" encoding="UTF-8"?>
<svg xmlns="http://www.w3.org/2000/svg" xmlns:xlink="http://www.w3.org/1999/xlink" width="16px" height="16px" viewBox="0 0 16 16" version="1.1">
<g id="surface1">
<path style=" stroke:none;fill-rule:nonzero;fill:rgb(0%,84.705883%,100%);fill-opacity:1;" d="M 13.15625 5.488281 C 12.984375 5.429688 12.8125 5.375 12.640625 5.328125 C 12.667969 5.207031 12.695312 5.089844 12.71875 4.976562 C 13.109375 3.082031 12.855469 1.558594 11.984375 1.054688 C 11.148438 0.574219 9.785156 1.078125 8.40625 2.277344 C 8.269531 2.394531 8.136719 2.515625 8.007812 2.640625 C 7.921875 2.558594 7.832031 2.476562 7.742188 2.398438 C 6.296875 1.113281 4.847656 0.574219 3.980469 1.078125 C 3.144531 1.558594 2.898438 2.992188 3.25 4.785156 C 3.285156 4.964844 3.324219 5.140625 3.367188 5.316406 C 3.164062 5.375 2.964844 5.4375 2.777344 5.503906 C 1.082031 6.09375 0 7.019531 0 7.980469 C 0 8.972656 1.160156 9.964844 2.925781 10.570312 C 3.070312 10.617188 3.214844 10.664062 3.359375 10.703125 C 3.3125 10.894531 3.269531 11.082031 3.234375 11.273438 C 2.898438 13.039062 3.160156 14.4375 3.992188 14.917969 C 4.851562 15.410156 6.292969 14.902344 7.695312 13.675781 C 7.808594 13.574219 7.921875 13.472656 8.03125 13.367188 C 8.171875 13.503906 8.3125 13.636719 8.460938 13.761719 C 9.820312 14.933594 11.164062 15.40625 11.996094 14.925781 C 12.855469 14.425781 13.132812 12.925781 12.769531 11.09375 C 12.742188 10.953125 12.710938 10.808594 12.675781 10.667969 C 12.777344 10.636719 12.875 10.605469 12.972656 10.574219 C 14.804688 9.964844 16 8.984375 16 7.980469 C 16 7.015625 14.882812 6.082031 13.15625 5.488281 Z M 12.757812 9.925781 C 12.667969 9.953125 12.582031 9.980469 12.488281 10.007812 C 12.285156 9.367188 12.011719 8.6875 11.679688 7.984375 C 11.996094 7.296875 12.261719 6.621094 12.457031 5.984375 C 12.621094 6.03125 12.78125 6.082031 12.933594 6.136719 C 14.414062 6.644531 15.316406 7.398438 15.316406 7.980469 C 15.316406 8.597656 14.339844 9.402344 12.757812 9.925781 Z M 12.101562 11.226562 C 12.261719 12.035156 12.28125 12.769531 12.175781 13.339844 C 12.082031 13.851562 11.890625 14.195312 11.652344 14.332031 C 11.148438 14.625 10.070312 14.246094 8.90625 13.246094 C 8.769531 13.125 8.636719 13.003906 8.503906 12.878906 C 8.957031 12.382812 9.40625 11.8125 9.847656 11.175781 C 10.621094 11.105469 11.351562 10.992188 12.011719 10.839844 C 12.046875 10.96875 12.074219 11.097656 12.101562 11.226562 Z M 5.453125 14.28125 C 4.960938 14.457031 4.570312 14.460938 4.332031 14.324219 C 3.828125 14.035156 3.617188 12.910156 3.902344 11.402344 C 3.9375 11.222656 3.976562 11.046875 4.019531 10.871094 C 4.675781 11.015625 5.402344 11.121094 6.175781 11.183594 C 6.621094 11.804688 7.082031 12.378906 7.550781 12.878906 C 7.453125 12.976562 7.351562 13.070312 7.246094 13.160156 C 6.625 13.703125 6.003906 14.089844 5.453125 14.28125 Z M 3.148438 9.921875 C 2.367188 9.65625 1.722656 9.308594 1.28125 8.929688 C 0.882812 8.589844 0.683594 8.253906 0.683594 7.980469 C 0.683594 7.398438 1.550781 6.652344 3 6.148438 C 3.175781 6.085938 3.359375 6.03125 3.550781 5.976562 C 3.75 6.625 4.015625 7.308594 4.332031 7.996094 C 4.011719 8.695312 3.742188 9.386719 3.542969 10.046875 C 3.410156 10.007812 3.277344 9.964844 3.148438 9.921875 Z M 3.921875 4.65625 C 3.621094 3.117188 3.820312 1.960938 4.320312 1.667969 C 4.855469 1.359375 6.039062 1.800781 7.289062 2.910156 C 7.371094 2.980469 7.449219 3.054688 7.527344 3.128906 C 7.0625 3.628906 6.605469 4.199219 6.164062 4.816406 C 5.414062 4.886719 4.691406 5 4.03125 5.148438 C 3.988281 4.984375 3.953125 4.820312 3.921875 4.65625 Z M 10.820312 6.359375 C 10.664062 6.089844 10.503906 5.824219 10.335938 5.558594 C 10.847656 5.625 11.335938 5.710938 11.792969 5.816406 C 11.65625 6.257812 11.484375 6.71875 11.28125 7.191406 C 11.132812 6.910156 10.980469 6.632812 10.820312 6.359375 Z M 8.007812 3.617188 C 8.324219 3.960938 8.640625 4.339844 8.949219 4.753906 C 8.320312 4.726562 7.6875 4.726562 7.058594 4.753906 C 7.367188 4.34375 7.6875 3.964844 8.007812 3.617188 Z M 5.175781 6.363281 C 5.019531 6.636719 4.867188 6.914062 4.722656 7.191406 C 4.523438 6.71875 4.355469 6.253906 4.214844 5.808594 C 4.671875 5.707031 5.160156 5.621094 5.664062 5.558594 C 5.496094 5.824219 5.332031 6.09375 5.175781 6.363281 Z M 5.679688 10.449219 C 5.15625 10.390625 4.660156 10.3125 4.207031 10.210938 C 4.347656 9.753906 4.519531 9.28125 4.722656 8.800781 C 4.867188 9.078125 5.019531 9.355469 5.179688 9.628906 C 5.339844 9.90625 5.507812 10.179688 5.679688 10.449219 Z M 8.027344 12.386719 C 7.703125 12.039062 7.378906 11.652344 7.0625 11.234375 C 7.371094 11.25 7.683594 11.253906 8 11.253906 C 8.324219 11.253906 8.648438 11.246094 8.964844 11.234375 C 8.652344 11.65625 8.339844 12.042969 8.027344 12.386719 Z M 11.289062 8.773438 C 11.503906 9.261719 11.683594 9.734375 11.828125 10.183594 C 11.363281 10.289062 10.863281 10.375 10.332031 10.4375 C 10.503906 10.167969 10.667969 9.898438 10.824219 9.621094 C 10.984375 9.34375 11.140625 9.0625 11.289062 8.773438 Z M 10.234375 9.28125 C 9.992188 9.703125 9.734375 10.113281 9.464844 10.519531 C 8.976562 10.554688 8.488281 10.570312 8 10.570312 C 7.503906 10.570312 7.019531 10.554688 6.550781 10.523438 C 6.273438 10.121094 6.015625 9.707031 5.769531 9.285156 C 5.527344 8.863281 5.296875 8.433594 5.085938 7.996094 C 5.296875 7.558594 5.523438 7.128906 5.765625 6.707031 C 6.011719 6.285156 6.269531 5.871094 6.542969 5.472656 C 7.019531 5.433594 7.507812 5.414062 8 5.414062 C 8.496094 5.414062 8.984375 5.433594 9.460938 5.472656 C 9.730469 5.871094 9.988281 6.28125 10.230469 6.703125 C 10.472656 7.121094 10.703125 7.550781 10.921875 7.984375 C 10.707031 8.425781 10.476562 8.859375 10.234375 9.28125 Z M 11.644531 1.648438 C 12.179688 1.957031 12.386719 3.203125 12.050781 4.835938 C 12.027344 4.941406 12.003906 5.046875 11.976562 5.15625 C 11.316406 5.003906 10.59375 4.886719 9.839844 4.816406 C 9.398438 4.191406 8.945312 3.621094 8.488281 3.128906 C 8.605469 3.015625 8.730469 2.902344 8.855469 2.792969 C 10.035156 1.765625 11.140625 1.359375 11.644531 1.648438 Z M 8 6.550781 C 8.789062 6.550781 9.429688 7.191406 9.429688 7.980469 C 9.429688 8.769531 8.789062 9.40625 8 9.40625 C 7.210938 9.40625 6.570312 8.769531 6.570312 7.980469 C 6.570312 7.191406 7.210938 6.550781 8 6.550781 Z M 8 6.550781 "/>
</g>
</svg>
