<?xml version="1.0" encoding="UTF-8"?>
<svg xmlns="http://www.w3.org/2000/svg" xmlns:xlink="http://www.w3.org/1999/xlink" width="16px" height="16px" viewBox="0 0 16 16" version="1.1">
<g id="surface1">
<path style=" stroke:none;fill-rule:nonzero;fill:rgb(80.392158%,40.392157%,60.000002%);fill-opacity:1;" d="M 13.765625 8.90625 C 13.210938 8.910156 12.726562 9.042969 12.320312 9.242188 C 12.171875 8.949219 12.023438 8.6875 12 8.492188 C 11.96875 8.269531 11.933594 8.132812 11.96875 7.863281 C 12.003906 7.59375 12.160156 7.214844 12.160156 7.183594 C 12.15625 7.15625 12.125 7.019531 11.804688 7.015625 C 11.484375 7.011719 11.207031 7.078125 11.171875 7.160156 C 11.140625 7.246094 11.082031 7.4375 11.039062 7.636719 C 10.984375 7.929688 10.398438 8.96875 10.0625 9.511719 C 9.957031 9.300781 9.863281 9.113281 9.84375 8.964844 C 9.8125 8.742188 9.777344 8.605469 9.8125 8.335938 C 9.847656 8.066406 10.003906 7.6875 10.003906 7.65625 C 10 7.628906 9.96875 7.492188 9.648438 7.488281 C 9.324219 7.484375 9.050781 7.550781 9.015625 7.632812 C 8.984375 7.71875 8.949219 7.917969 8.882812 8.109375 C 8.816406 8.300781 8.039062 10.039062 7.832031 10.488281 C 7.75 10.667969 7.664062 10.847656 7.574219 11.027344 C 7.574219 11.027344 7.570312 11.035156 7.5625 11.050781 C 7.535156 11.105469 7.503906 11.160156 7.476562 11.214844 L 7.476562 11.21875 C 7.433594 11.296875 7.386719 11.371094 7.363281 11.371094 C 7.34375 11.371094 7.3125 11.160156 7.367188 10.875 C 7.484375 10.269531 7.761719 9.332031 7.757812 9.300781 C 7.757812 9.28125 7.8125 9.121094 7.578125 9.035156 C 7.351562 8.949219 7.269531 9.089844 7.25 9.089844 C 7.226562 9.089844 7.214844 9.140625 7.214844 9.140625 C 7.214844 9.140625 7.464844 8.085938 6.730469 8.085938 C 6.269531 8.085938 5.632812 8.589844 5.320312 9.042969 C 4.960938 9.238281 4.601562 9.433594 4.246094 9.628906 C 4.074219 9.726562 3.898438 9.820312 3.730469 9.914062 C 3.71875 9.902344 3.707031 9.886719 3.695312 9.875 C 2.804688 8.921875 1.152344 8.25 1.222656 6.96875 C 1.25 6.503906 1.410156 5.277344 4.390625 3.792969 C 6.847656 2.582031 8.796875 2.917969 9.136719 3.660156 C 9.621094 4.722656 8.089844 6.691406 5.554688 6.976562 C 4.585938 7.085938 4.082031 6.710938 3.953125 6.574219 C 3.816406 6.425781 3.796875 6.417969 3.746094 6.449219 C 3.667969 6.492188 3.71875 6.621094 3.746094 6.699219 C 3.824219 6.894531 4.136719 7.246094 4.664062 7.417969 C 5.128906 7.570312 6.261719 7.652344 7.636719 7.125 C 9.171875 6.527344 10.371094 4.875 10.019531 3.492188 C 9.667969 2.085938 7.335938 1.625 5.128906 2.40625 C 3.816406 2.875 2.394531 3.609375 1.371094 4.566406 C 0.15625 5.703125 -0.0351562 6.6875 0.0429688 7.101562 C 0.328125 8.570312 2.351562 9.527344 3.164062 10.234375 C 3.121094 10.257812 3.082031 10.28125 3.050781 10.296875 C 2.644531 10.5 1.101562 11.304688 0.71875 12.160156 C 0.28125 13.128906 0.785156 13.820312 1.121094 13.914062 C 2.164062 14.203125 3.230469 13.683594 3.804688 12.828125 C 4.378906 11.96875 4.308594 10.855469 4.046875 10.347656 C 4.042969 10.339844 4.039062 10.335938 4.035156 10.328125 C 4.136719 10.269531 4.246094 10.203125 4.351562 10.144531 C 4.542969 10.027344 4.738281 9.917969 4.9375 9.8125 C 4.835938 10.085938 4.765625 10.40625 4.730469 10.875 C 4.6875 11.421875 4.910156 12.132812 5.203125 12.414062 C 5.335938 12.535156 5.492188 12.539062 5.589844 12.539062 C 5.933594 12.539062 6.089844 12.253906 6.261719 11.914062 C 6.46875 11.5 6.660156 11.019531 6.660156 11.019531 C 6.660156 11.019531 6.421875 12.320312 7.066406 12.320312 C 7.296875 12.320312 7.535156 12.015625 7.636719 11.863281 C 7.636719 11.863281 7.644531 11.855469 7.65625 11.835938 C 7.679688 11.796875 7.695312 11.773438 7.695312 11.773438 L 7.695312 11.769531 C 7.789062 11.605469 7.996094 11.234375 8.308594 10.621094 C 8.710938 9.828125 9.097656 8.835938 9.097656 8.835938 C 9.097656 8.835938 9.132812 9.078125 9.253906 9.480469 C 9.324219 9.71875 9.46875 9.976562 9.585938 10.226562 C 9.492188 10.359375 9.433594 10.429688 9.433594 10.429688 L 9.4375 10.433594 C 9.359375 10.535156 9.28125 10.640625 9.1875 10.746094 C 8.871094 11.125 8.492188 11.558594 8.441406 11.683594 C 8.378906 11.832031 8.394531 11.941406 8.511719 12.027344 C 8.59375 12.09375 8.746094 12.101562 8.902344 12.09375 C 9.1875 12.070312 9.386719 12.003906 9.484375 11.957031 C 9.640625 11.902344 9.820312 11.820312 9.992188 11.691406 C 10.300781 11.464844 10.492188 11.132812 10.472656 10.699219 C 10.464844 10.460938 10.386719 10.222656 10.289062 9.996094 C 10.320312 9.957031 10.347656 9.914062 10.375 9.875 C 10.867188 9.15625 11.25 8.363281 11.25 8.363281 C 11.25 8.363281 11.285156 8.605469 11.402344 9.007812 C 11.460938 9.214844 11.582031 9.433594 11.6875 9.648438 C 11.222656 10.027344 10.9375 10.464844 10.835938 10.75 C 10.652344 11.28125 10.792969 11.519531 11.066406 11.574219 C 11.1875 11.601562 11.363281 11.542969 11.492188 11.484375 C 11.65625 11.433594 11.847656 11.34375 12.03125 11.210938 C 12.34375 10.980469 12.644531 10.660156 12.625 10.222656 C 12.617188 10.027344 12.5625 9.832031 12.492188 9.640625 C 12.882812 9.476562 13.390625 9.386719 14.039062 9.464844 C 15.425781 9.625 15.699219 10.492188 15.648438 10.855469 C 15.59375 11.222656 15.304688 11.417969 15.207031 11.480469 C 15.109375 11.542969 15.078125 11.5625 15.085938 11.605469 C 15.097656 11.671875 15.144531 11.667969 15.226562 11.65625 C 15.339844 11.636719 15.957031 11.359375 15.984375 10.691406 C 16.027344 9.832031 15.210938 8.898438 13.765625 8.90625 Z M 3.066406 12.515625 C 2.605469 13.015625 1.964844 13.207031 1.6875 13.046875 C 1.390625 12.875 1.507812 12.132812 2.070312 11.601562 C 2.414062 11.28125 2.859375 10.980469 3.152344 10.796875 C 3.21875 10.753906 3.320312 10.695312 3.4375 10.625 C 3.460938 10.613281 3.472656 10.605469 3.472656 10.605469 L 3.539062 10.5625 C 3.746094 11.320312 3.550781 11.988281 3.066406 12.515625 Z M 6.417969 10.234375 C 6.257812 10.625 5.921875 11.625 5.71875 11.570312 C 5.542969 11.523438 5.433594 10.765625 5.683594 10.015625 C 5.808594 9.640625 6.074219 9.191406 6.226562 9.019531 C 6.480469 8.738281 6.753906 8.644531 6.824219 8.757812 C 6.90625 8.90625 6.515625 9.992188 6.417969 10.234375 Z M 9.183594 11.558594 C 9.117188 11.59375 9.050781 11.617188 9.023438 11.601562 C 9.003906 11.589844 9.050781 11.542969 9.050781 11.542969 C 9.050781 11.542969 9.398438 11.167969 9.535156 11 C 9.613281 10.902344 9.707031 10.785156 9.808594 10.652344 L 9.808594 10.691406 C 9.808594 11.136719 9.375 11.4375 9.183594 11.558594 Z M 11.316406 11.074219 C 11.265625 11.039062 11.277344 10.921875 11.441406 10.554688 C 11.507812 10.414062 11.65625 10.175781 11.917969 9.945312 C 11.945312 10.039062 11.964844 10.128906 11.964844 10.210938 C 11.960938 10.773438 11.558594 10.984375 11.316406 11.074219 Z M 11.316406 11.074219 "/>
</g>
</svg>
