<?xml version="1.0" encoding="UTF-8"?>
<svg xmlns="http://www.w3.org/2000/svg" xmlns:xlink="http://www.w3.org/1999/xlink" width="16px" height="16px" viewBox="0 0 16 16" version="1.1">
<g id="surface1">
<path style=" stroke:none;fill-rule:nonzero;fill:rgb(20%,20%,20%);fill-opacity:1;" d="M -16.539062 28.492188 C -16.625 28.476562 -16.839844 28.425781 -17.015625 28.375 L -17.339844 28.285156 L -17.175781 27.980469 L -17.007812 27.671875 L -17.144531 27.507812 C -17.332031 27.273438 -17.578125 26.757812 -17.578125 26.589844 C -17.582031 26.203125 -17.078125 25.640625 -16.460938 25.339844 C -16.035156 25.132812 -15.699219 25.125 -15.273438 25.324219 L -14.957031 25.472656 L -14.863281 25.339844 C -14.8125 25.269531 -14.769531 25.171875 -14.769531 25.132812 C -14.769531 25.089844 -14.730469 25.050781 -14.679688 25.050781 C -14.628906 25.050781 -14.585938 25.066406 -14.585938 25.082031 C -14.585938 25.117188 -14.957031 26.054688 -14.980469 26.078125 C -14.992188 26.085938 -15.09375 26.039062 -15.207031 25.972656 C -15.527344 25.785156 -15.933594 25.65625 -16.246094 25.648438 C -16.976562 25.632812 -17.230469 26.34375 -16.714844 26.96875 L -16.535156 27.1875 L -16.039062 26.789062 C -15.484375 26.339844 -15.417969 26.328125 -14.984375 26.628906 C -14.5 26.964844 -14.492188 27.472656 -14.960938 28.007812 C -15.378906 28.484375 -15.804688 28.613281 -16.539062 28.492188 Z M -15.296875 27.980469 C -15.054688 27.789062 -15.070312 27.4375 -15.332031 27.160156 C -15.660156 26.8125 -15.761719 26.824219 -16.34375 27.308594 C -16.917969 27.789062 -16.921875 27.769531 -16.234375 27.992188 C -15.777344 28.136719 -15.492188 28.132812 -15.296875 27.980469 Z M -10.617188 29.828125 C -10.785156 29.769531 -11.226562 29.585938 -11.605469 29.421875 C -12.628906 28.976562 -12.773438 28.964844 -13.078125 29.335938 C -13.148438 29.421875 -13.226562 29.476562 -13.25 29.453125 C -13.316406 29.390625 -13.121094 29.074219 -12.882812 28.867188 C -12.695312 28.699219 -12.628906 28.675781 -12.417969 28.699219 C -12.285156 28.714844 -11.835938 28.871094 -11.425781 29.046875 C -10.496094 29.441406 -10.226562 29.523438 -9.871094 29.523438 C -9.441406 29.523438 -9.21875 29.222656 -9.355469 28.820312 C -9.386719 28.722656 -9.378906 28.6875 -9.3125 28.6875 C -9.183594 28.6875 -9.121094 29.15625 -9.210938 29.429688 C -9.25 29.542969 -9.363281 29.707031 -9.460938 29.789062 C -9.609375 29.914062 -9.703125 29.941406 -9.980469 29.941406 C -10.167969 29.9375 -10.453125 29.890625 -10.617188 29.828125 Z M -13.011719 28.394531 C -13.390625 28.214844 -13.734375 27.875 -13.933594 27.480469 C -14.25 26.847656 -14.152344 26.441406 -13.554688 25.890625 C -13.046875 25.429688 -12.632812 25.25 -12.078125 25.25 C -11.679688 25.25 -11.59375 25.273438 -11.332031 25.429688 C -10.714844 25.8125 -10.5625 26.539062 -10.933594 27.332031 C -11.367188 28.261719 -12.289062 28.730469 -13.011719 28.394531 Z M -11.734375 27.953125 C -11.449219 27.8125 -11.253906 27.160156 -11.332031 26.621094 C -11.433594 25.953125 -12.335938 25.5 -12.996094 25.78125 C -13.675781 26.070312 -13.6875 26.84375 -13.019531 27.542969 C -12.550781 28.03125 -12.152344 28.15625 -11.734375 27.953125 Z M -10.441406 28.515625 C -10.441406 28.488281 -10.335938 28.4375 -10.203125 28.40625 L -9.96875 28.347656 L -9.917969 27.492188 C -9.863281 26.550781 -9.902344 25.621094 -10.003906 25.5 C -10.042969 25.453125 -10.152344 25.402344 -10.257812 25.378906 C -10.671875 25.285156 -10.394531 25.222656 -9.589844 25.222656 C -8.78125 25.222656 -8.523438 25.28125 -8.910156 25.378906 C -9.238281 25.460938 -9.242188 25.464844 -9.242188 26.8125 C -9.242188 27.558594 -9.214844 28.121094 -9.175781 28.191406 C -9.121094 28.292969 -9.042969 28.316406 -8.730469 28.316406 C -8.09375 28.316406 -7.875 28.164062 -7.703125 27.605469 C -7.648438 27.4375 -7.515625 27.46875 -7.5625 27.636719 C -7.585938 27.714844 -7.621094 27.957031 -7.640625 28.175781 L -7.679688 28.570312 L -9.0625 28.570312 C -9.820312 28.570312 -10.441406 28.542969 -10.441406 28.515625 Z M -7.308594 28.476562 C -7.308594 28.425781 -7.257812 28.375 -7.179688 28.335938 C -7.070312 28.285156 -7 28.179688 -6.746094 27.683594 C -6.339844 26.894531 -5.703125 25.539062 -5.640625 25.335938 C -5.59375 25.179688 -5.585938 25.171875 -5.410156 25.152344 C -5.308594 25.140625 -5.226562 25.132812 -5.222656 25.136719 C -5.222656 25.140625 -5.082031 25.445312 -4.914062 25.816406 C -4.746094 26.1875 -4.410156 26.894531 -4.164062 27.382812 C -3.753906 28.207031 -3.707031 28.28125 -3.570312 28.347656 C -3.488281 28.390625 -3.421875 28.449219 -3.421875 28.488281 C -3.421875 28.546875 -3.492188 28.554688 -4.113281 28.554688 C -4.738281 28.554688 -4.808594 28.546875 -4.808594 28.484375 C -4.808594 28.445312 -4.753906 28.402344 -4.667969 28.375 C -4.589844 28.347656 -4.53125 28.300781 -4.53125 28.265625 C -4.53125 28.234375 -4.613281 28.011719 -4.710938 27.773438 L -4.894531 27.34375 L -6.28125 27.34375 L -6.414062 27.636719 C -6.664062 28.183594 -6.667969 28.3125 -6.4375 28.375 C -6.320312 28.40625 -6.289062 28.429688 -6.300781 28.484375 C -6.316406 28.542969 -6.378906 28.550781 -6.8125 28.550781 C -7.28125 28.554688 -7.308594 28.550781 -7.308594 28.476562 Z M -5.035156 27.117188 C -5.011719 27.078125 -5.53125 25.9375 -5.582031 25.925781 C -5.617188 25.914062 -6.15625 27.027344 -6.15625 27.113281 C -6.15625 27.15625 -5.058594 27.160156 -5.035156 27.117188 Z M 1.175781 8.863281 C 1.097656 8.847656 1.023438 8.832031 0.945312 8.808594 L 0.789062 8.765625 L 0.867188 8.617188 L 0.949219 8.46875 L 0.882812 8.386719 C 0.792969 8.273438 0.671875 8.023438 0.671875 7.941406 C 0.671875 7.753906 0.914062 7.476562 1.214844 7.332031 C 1.421875 7.230469 1.585938 7.226562 1.792969 7.324219 L 1.949219 7.394531 L 1.996094 7.332031 C 2.019531 7.296875 2.039062 7.25 2.039062 7.226562 C 2.039062 7.207031 2.058594 7.191406 2.085938 7.191406 C 2.109375 7.191406 2.128906 7.195312 2.128906 7.203125 C 2.128906 7.222656 1.949219 7.675781 1.9375 7.6875 C 1.933594 7.691406 1.882812 7.667969 1.828125 7.636719 C 1.671875 7.546875 1.472656 7.484375 1.320312 7.480469 C 0.964844 7.472656 0.84375 7.820312 1.09375 8.121094 L 1.183594 8.230469 L 1.425781 8.035156 C 1.695312 7.816406 1.726562 7.8125 1.9375 7.957031 C 2.175781 8.121094 2.179688 8.371094 1.949219 8.632812 C 1.746094 8.859375 1.535156 8.921875 1.175781 8.863281 Z M 1.785156 8.613281 C 1.902344 8.523438 1.890625 8.351562 1.765625 8.214844 C 1.605469 8.046875 1.554688 8.050781 1.273438 8.289062 C 0.992188 8.519531 0.992188 8.511719 1.328125 8.621094 C 1.546875 8.691406 1.6875 8.691406 1.785156 8.613281 Z M 4.0625 9.515625 C 3.980469 9.488281 3.765625 9.398438 3.582031 9.316406 C 3.085938 9.097656 3.011719 9.09375 2.863281 9.277344 C 2.828125 9.316406 2.792969 9.34375 2.78125 9.332031 C 2.75 9.300781 2.84375 9.148438 2.960938 9.046875 C 3.054688 8.964844 3.085938 8.957031 3.1875 8.964844 C 3.253906 8.972656 3.46875 9.046875 3.667969 9.132812 C 4.121094 9.324219 4.253906 9.367188 4.425781 9.367188 C 4.636719 9.367188 4.746094 9.21875 4.679688 9.023438 C 4.660156 8.976562 4.667969 8.957031 4.699219 8.957031 C 4.761719 8.957031 4.792969 9.1875 4.75 9.320312 C 4.730469 9.375 4.675781 9.457031 4.625 9.496094 C 4.554688 9.554688 4.507812 9.570312 4.375 9.566406 C 4.28125 9.570312 4.144531 9.542969 4.0625 9.515625 Z M 2.898438 8.816406 C 2.710938 8.730469 2.546875 8.566406 2.449219 8.371094 C 2.292969 8.0625 2.339844 7.863281 2.632812 7.597656 C 2.882812 7.371094 3.082031 7.285156 3.351562 7.285156 C 3.546875 7.285156 3.589844 7.292969 3.71875 7.371094 C 4.015625 7.558594 4.089844 7.914062 3.910156 8.296875 C 3.695312 8.753906 3.25 8.980469 2.898438 8.816406 Z M 3.519531 8.601562 C 3.65625 8.53125 3.753906 8.214844 3.714844 7.953125 C 3.664062 7.628906 3.226562 7.40625 2.902344 7.542969 C 2.570312 7.683594 2.566406 8.0625 2.894531 8.398438 C 3.121094 8.640625 3.316406 8.703125 3.519531 8.601562 Z M 4.148438 8.875 C 4.148438 8.863281 4.203125 8.839844 4.265625 8.824219 L 4.382812 8.792969 L 4.40625 8.378906 C 4.433594 7.917969 4.414062 7.46875 4.363281 7.40625 C 4.347656 7.386719 4.292969 7.359375 4.242188 7.347656 C 4.039062 7.304688 4.175781 7.273438 4.566406 7.273438 C 4.960938 7.273438 5.085938 7.300781 4.898438 7.347656 C 4.738281 7.386719 4.738281 7.390625 4.738281 8.046875 C 4.738281 8.410156 4.75 8.683594 4.769531 8.71875 C 4.796875 8.769531 4.835938 8.777344 4.984375 8.777344 C 5.296875 8.777344 5.402344 8.703125 5.488281 8.433594 C 5.511719 8.351562 5.578125 8.363281 5.554688 8.445312 C 5.542969 8.484375 5.527344 8.601562 5.515625 8.707031 L 5.496094 8.902344 L 4.828125 8.902344 C 4.453125 8.902344 4.148438 8.890625 4.148438 8.875 Z M 4.148438 8.875 "/>
<path style=" stroke:none;fill-rule:nonzero;fill:rgb(79.215688%,15.294118%,15.294118%);fill-opacity:1;" d="M 7.664062 8.875 C 7.664062 8.84375 7.691406 8.808594 7.722656 8.800781 C 7.765625 8.785156 7.789062 8.742188 7.800781 8.648438 C 7.824219 8.492188 7.800781 7.425781 7.769531 7.335938 C 7.75 7.28125 7.78125 7.257812 8.019531 7.132812 C 8.199219 7.039062 8.292969 7.007812 8.308594 7.027344 C 8.320312 7.046875 8.289062 7.09375 8.242188 7.132812 L 8.15625 7.199219 L 8.148438 7.957031 L 8.140625 8.71875 L 8.21875 8.78125 C 8.265625 8.816406 8.289062 8.859375 8.28125 8.886719 C 8.265625 8.921875 8.203125 8.933594 7.964844 8.933594 C 7.6875 8.933594 7.664062 8.929688 7.664062 8.875 Z M 8.65625 8.878906 C 8.601562 8.84375 8.527344 8.753906 8.484375 8.679688 C 8.425781 8.566406 8.414062 8.511719 8.425781 8.34375 C 8.433594 8.175781 8.449219 8.128906 8.527344 8.035156 C 8.628906 7.910156 8.867188 7.734375 8.972656 7.707031 C 9.113281 7.671875 9.398438 7.921875 9.359375 8.046875 C 9.347656 8.074219 9.28125 8.121094 9.207031 8.148438 L 9.074219 8.199219 L 9.027344 8.113281 C 8.96875 8.003906 8.84375 7.914062 8.800781 7.957031 C 8.785156 7.972656 8.757812 8.042969 8.742188 8.113281 C 8.707031 8.269531 8.746094 8.433594 8.851562 8.554688 C 8.953125 8.679688 9.050781 8.695312 9.195312 8.613281 C 9.296875 8.558594 9.316406 8.554688 9.34375 8.589844 C 9.363281 8.625 9.339844 8.664062 9.242188 8.75 C 9.019531 8.957031 8.828125 8.996094 8.65625 8.878906 Z M 9.472656 8.78125 C 9.515625 8.769531 9.535156 8.722656 9.550781 8.632812 C 9.574219 8.472656 9.546875 7.40625 9.519531 7.316406 C 9.5 7.261719 9.53125 7.238281 9.769531 7.117188 C 10.050781 6.96875 10.144531 6.972656 9.984375 7.125 C 9.890625 7.210938 9.890625 7.210938 9.890625 7.523438 C 9.890625 7.695312 9.882812 7.878906 9.871094 7.933594 L 9.851562 8.035156 L 9.972656 7.925781 C 10.105469 7.804688 10.246094 7.722656 10.316406 7.722656 C 10.378906 7.722656 10.539062 7.863281 10.59375 7.96875 C 10.628906 8.039062 10.636719 8.117188 10.617188 8.390625 C 10.597656 8.726562 10.597656 8.730469 10.667969 8.765625 C 10.761719 8.816406 10.757812 8.808594 10.738281 8.863281 C 10.722656 8.90625 10.671875 8.914062 10.425781 8.914062 C 10.105469 8.914062 10.078125 8.894531 10.199219 8.78125 C 10.332031 8.65625 10.34375 8.160156 10.21875 8.035156 C 10.164062 7.980469 10.152344 7.980469 10.078125 8.019531 C 9.945312 8.09375 9.886719 8.226562 9.882812 8.480469 C 9.875 8.707031 9.898438 8.761719 10.015625 8.800781 C 10.03125 8.804688 10.035156 8.832031 10.023438 8.859375 C 10.007812 8.902344 9.960938 8.910156 9.710938 8.910156 C 9.625 8.957031 9.285156 8.902344 9.472656 8.78125 Z M 11.128906 8.871094 C 10.628906 8.5 10.945312 7.785156 11.503906 7.699219 C 11.546875 7.710938 11.632812 7.765625 11.699219 7.828125 C 11.890625 8 11.863281 8.054688 11.519531 8.210938 C 11.363281 8.28125 11.230469 8.359375 11.226562 8.386719 C 11.210938 8.457031 11.324219 8.597656 11.425781 8.640625 C 11.503906 8.671875 11.53125 8.667969 11.636719 8.609375 C 11.730469 8.554688 11.765625 8.546875 11.792969 8.574219 C 11.871094 8.652344 11.488281 8.9375 11.304688 8.9375 C 11.261719 8.9375 11.183594 8.910156 11.128906 8.871094 Z M 11.351562 8.15625 C 11.503906 8.070312 11.511719 8.03125 11.394531 7.96875 C 11.300781 7.917969 11.296875 7.917969 11.246094 7.984375 C 11.191406 8.050781 11.167969 8.226562 11.210938 8.222656 C 11.226562 8.222656 11.289062 8.195312 11.351562 8.15625 Z M 11.925781 8.875 C 11.925781 8.851562 11.953125 8.808594 11.984375 8.78125 C 12.074219 8.707031 12.097656 8.347656 12.03125 8.089844 C 11.976562 7.878906 11.972656 7.894531 12.171875 7.789062 C 12.328125 7.707031 12.371094 7.730469 12.371094 7.890625 L 12.371094 8.019531 L 12.476562 7.921875 C 12.535156 7.871094 12.628906 7.800781 12.6875 7.769531 C 12.78125 7.71875 12.796875 7.71875 12.871094 7.761719 C 12.917969 7.785156 12.984375 7.855469 13.023438 7.914062 L 13.09375 8.023438 L 13.242188 7.890625 C 13.324219 7.816406 13.421875 7.75 13.464844 7.742188 C 13.5625 7.714844 13.675781 7.78125 13.765625 7.917969 C 13.835938 8.027344 13.839844 8.039062 13.820312 8.371094 C 13.804688 8.710938 13.804688 8.710938 13.878906 8.769531 C 13.925781 8.808594 13.949219 8.851562 13.9375 8.875 C 13.925781 8.910156 13.863281 8.921875 13.636719 8.921875 C 13.375 8.921875 13.351562 8.917969 13.351562 8.863281 C 13.351562 8.832031 13.378906 8.800781 13.410156 8.789062 C 13.484375 8.765625 13.503906 8.691406 13.503906 8.378906 C 13.503906 8.15625 13.492188 8.109375 13.445312 8.058594 C 13.363281 7.980469 13.320312 7.980469 13.230469 8.078125 C 13.046875 8.273438 13.039062 8.800781 13.21875 8.800781 C 13.242188 8.800781 13.253906 8.824219 13.242188 8.859375 C 13.230469 8.914062 13.203125 8.917969 12.933594 8.917969 C 12.605469 8.917969 12.574219 8.894531 12.714844 8.757812 C 12.78125 8.6875 12.789062 8.660156 12.789062 8.417969 C 12.789062 8.195312 12.777344 8.136719 12.726562 8.074219 C 12.644531 7.972656 12.609375 7.972656 12.507812 8.078125 C 12.410156 8.179688 12.371094 8.3125 12.371094 8.523438 C 12.371094 8.652344 12.382812 8.695312 12.445312 8.757812 C 12.574219 8.886719 12.527344 8.917969 12.207031 8.917969 C 11.96875 8.921875 11.925781 8.917969 11.925781 8.875 Z M 11.925781 8.875 "/>
<path style=" stroke:none;fill-rule:nonzero;fill:rgb(79.215688%,15.294118%,15.294118%);fill-opacity:1;" d="M 15 9.699219 C 15 9.695312 15.019531 9.640625 15.046875 9.578125 C 15.070312 9.519531 15.09375 9.460938 15.09375 9.441406 C 15.09375 9.375 14.191406 9.425781 14.042969 9.503906 C 14.011719 9.523438 13.988281 9.554688 13.976562 9.589844 C 13.953125 9.65625 13.871094 9.671875 13.871094 9.609375 C 13.871094 9.589844 13.894531 9.507812 13.921875 9.429688 C 13.960938 9.3125 14.007812 9.257812 14.210938 9.09375 C 14.34375 8.988281 14.457031 8.886719 14.460938 8.875 C 14.46875 8.863281 14.363281 8.640625 14.230469 8.386719 L 13.984375 7.921875 L 14.238281 7.804688 C 14.378906 7.738281 14.507812 7.683594 14.523438 7.683594 C 14.582031 7.683594 14.558594 7.75 14.484375 7.808594 C 14.441406 7.839844 14.410156 7.886719 14.410156 7.910156 C 14.410156 7.96875 14.730469 8.609375 14.757812 8.609375 C 14.773438 8.609375 14.820312 8.554688 14.867188 8.484375 C 14.925781 8.386719 14.945312 8.328125 14.9375 8.238281 C 14.933594 8.136719 14.914062 8.109375 14.804688 8.035156 C 14.734375 7.988281 14.675781 7.933594 14.675781 7.910156 C 14.675781 7.882812 14.734375 7.828125 14.796875 7.785156 L 14.917969 7.707031 L 15.027344 7.761719 C 15.234375 7.875 15.304688 8.132812 15.1875 8.363281 C 15.128906 8.472656 14.816406 8.792969 14.511719 9.050781 L 14.363281 9.175781 L 14.484375 9.15625 C 14.546875 9.144531 14.753906 9.132812 14.9375 9.132812 C 15.285156 9.128906 15.332031 9.144531 15.332031 9.265625 C 15.332031 9.339844 15.105469 9.695312 15.050781 9.707031 C 15.023438 9.710938 15 9.707031 15 9.699219 Z M 5.675781 8.855469 C 5.675781 8.832031 5.699219 8.808594 5.738281 8.789062 C 5.789062 8.765625 5.824219 8.714844 5.949219 8.46875 C 6.148438 8.085938 6.457031 7.425781 6.488281 7.328125 C 6.507812 7.25 6.515625 7.25 6.597656 7.238281 C 6.648438 7.234375 6.691406 7.230469 6.691406 7.230469 C 6.691406 7.234375 6.757812 7.382812 6.839844 7.5625 C 6.921875 7.742188 7.085938 8.085938 7.207031 8.324219 C 7.40625 8.726562 7.429688 8.765625 7.496094 8.796875 C 7.535156 8.816406 7.566406 8.847656 7.566406 8.863281 C 7.566406 8.890625 7.53125 8.894531 7.230469 8.894531 C 6.925781 8.894531 6.890625 8.890625 6.890625 8.863281 C 6.890625 8.84375 6.917969 8.824219 6.960938 8.808594 C 7 8.792969 7.027344 8.773438 7.027344 8.757812 C 7.027344 8.738281 6.988281 8.632812 6.9375 8.515625 L 6.847656 8.304688 L 6.175781 8.304688 L 6.109375 8.449219 C 5.988281 8.714844 5.984375 8.777344 6.097656 8.808594 C 6.152344 8.824219 6.171875 8.835938 6.164062 8.863281 C 6.15625 8.890625 6.128906 8.894531 5.914062 8.894531 C 5.6875 8.894531 5.675781 8.894531 5.675781 8.855469 Z M 6.785156 8.195312 C 6.796875 8.175781 6.539062 7.621094 6.515625 7.613281 C 6.5 7.609375 6.234375 8.152344 6.234375 8.191406 C 6.234375 8.214844 6.769531 8.214844 6.785156 8.195312 Z M 6.785156 8.195312 "/>
</g>
</svg>
