<?xml version="1.0" encoding="UTF-8"?>
<svg xmlns="http://www.w3.org/2000/svg" xmlns:xlink="http://www.w3.org/1999/xlink" width="16px" height="16px" viewBox="0 0 16 16" version="1.1">
<g id="surface1">
<path style=" stroke:none;fill-rule:nonzero;fill:rgb(21.960784%,74.117649%,97.254902%);fill-opacity:1;" d="M 8 3.199219 C 5.867188 3.199219 4.535156 4.265625 4 6.398438 C 4.800781 5.332031 5.734375 4.933594 6.800781 5.199219 C 7.410156 5.351562 7.84375 5.792969 8.324219 6.28125 C 9.109375 7.078125 10.019531 8 12 8 C 14.132812 8 15.464844 6.933594 16 4.800781 C 15.199219 5.867188 14.265625 6.265625 13.199219 6 C 12.59375 5.847656 12.15625 5.40625 11.675781 4.917969 C 10.890625 4.121094 9.984375 3.199219 8 3.199219 Z M 4 8 C 1.867188 8 0.535156 9.066406 0 11.199219 C 0.800781 10.132812 1.734375 9.734375 2.800781 10 C 3.410156 10.152344 3.84375 10.59375 4.324219 11.082031 C 5.109375 11.878906 6.019531 12.800781 8 12.800781 C 10.132812 12.800781 11.464844 11.734375 12 9.601562 C 11.199219 10.667969 10.265625 11.066406 9.199219 10.800781 C 8.59375 10.648438 8.15625 10.207031 7.675781 9.71875 C 6.890625 8.921875 5.984375 8 4 8 Z M 4 8 "/>
</g>
</svg>
