<?xml version="1.0" encoding="UTF-8"?>
<svg xmlns="http://www.w3.org/2000/svg" xmlns:xlink="http://www.w3.org/1999/xlink" width="16px" height="16px" viewBox="0 0 16 16" version="1.1">
<g id="surface1">
<path style=" stroke:none;fill-rule:nonzero;fill:rgb(0%,47.843137%,80.000001%);fill-opacity:1;" d="M 3.75 0 L 12.25 0 C 14.320312 0 16 1.679688 16 3.75 L 16 12.25 C 16 14.320312 14.320312 16 12.25 16 L 3.75 16 C 1.679688 16 0 14.320312 0 12.25 L 0 3.75 C 0 1.679688 1.679688 0 3.75 0 Z M 3.75 0 "/>
<path style=" stroke:none;fill-rule:nonzero;fill:rgb(100%,100%,100%);fill-opacity:1;" d="M 3.539062 8.054688 L 3.53125 8.707031 L 5.617188 8.707031 L 5.617188 14.625 L 7.089844 14.625 L 7.089844 8.707031 L 9.171875 8.707031 L 9.171875 8.066406 C 9.171875 7.710938 9.164062 7.414062 9.152344 7.40625 C 9.144531 7.394531 7.878906 7.390625 6.34375 7.394531 L 3.546875 7.398438 Z M 12.910156 7.382812 C 13.316406 7.484375 13.625 7.664062 13.910156 7.957031 C 14.058594 8.117188 14.277344 8.402344 14.292969 8.472656 C 14.300781 8.492188 13.605469 8.957031 13.183594 9.21875 C 13.167969 9.230469 13.105469 9.164062 13.039062 9.0625 C 12.832031 8.761719 12.617188 8.632812 12.285156 8.609375 C 11.800781 8.578125 11.488281 8.832031 11.492188 9.257812 C 11.492188 9.378906 11.507812 9.453125 11.558594 9.554688 C 11.664062 9.777344 11.863281 9.910156 12.484375 10.179688 C 13.632812 10.671875 14.121094 10.996094 14.425781 11.457031 C 14.765625 11.972656 14.84375 12.796875 14.613281 13.410156 C 14.359375 14.074219 13.726562 14.527344 12.84375 14.675781 C 12.566406 14.722656 11.917969 14.714844 11.621094 14.664062 C 10.980469 14.546875 10.371094 14.230469 9.996094 13.816406 C 9.847656 13.652344 9.5625 13.226562 9.578125 13.199219 C 9.585938 13.1875 9.652344 13.148438 9.726562 13.105469 C 9.796875 13.0625 10.066406 12.90625 10.320312 12.761719 L 10.78125 12.492188 L 10.875 12.636719 C 11.011719 12.84375 11.304688 13.125 11.484375 13.21875 C 11.992188 13.488281 12.695312 13.449219 13.039062 13.140625 C 13.1875 13.003906 13.25 12.863281 13.25 12.660156 C 13.25 12.472656 13.226562 12.390625 13.128906 12.253906 C 13.003906 12.074219 12.75 11.925781 12.027344 11.613281 C 11.203125 11.257812 10.847656 11.035156 10.523438 10.6875 C 10.335938 10.484375 10.15625 10.15625 10.082031 9.886719 C 10.023438 9.660156 10.007812 9.09375 10.054688 8.863281 C 10.226562 8.066406 10.828125 7.511719 11.695312 7.347656 C 11.976562 7.292969 12.632812 7.3125 12.910156 7.382812 Z M 12.910156 7.382812 "/>
</g>
</svg>
